<svg width="30" height="25" viewBox="0 0 30 25" fill="none" xmlns="http://www.w3.org/2000/svg">
<path fill-rule="evenodd" clip-rule="evenodd" d="M19.8207 1.11152L19.5749 0.996094L19.3308 1.11503L15.114 3.16964L10.8668 1.12143L10.6219 1.00331L10.3763 1.12016L1.45772 5.36448L0.400906 5.86742L1.45018 6.3859L4.89422 8.08773L1.42563 9.74234L0.34375 10.2584L1.42855 10.7683L5.54888 12.7051V19.4705V19.8266L5.86955 19.9815L14.8687 24.3299L15.1148 24.4488L15.3611 24.3306L24.2414 20.0715L24.5636 19.917V19.5597V12.7835L28.7568 10.7276L29.818 10.2073L28.7484 9.70429L25.2813 8.07376L28.7674 6.32811L29.8137 5.80417L28.7545 5.30678L19.8207 1.11152ZM6.68412 19.1143V13.2388L10.3937 14.9825L10.6381 15.0973L10.8813 14.9803L14.5481 13.2159V22.9142L6.68412 19.1143ZM15.6833 22.9171V13.2423L19.3106 15.1047L19.564 15.2348L19.8197 15.1094L23.4283 13.3401V19.2024L15.6833 22.9171ZM16.4162 3.79798L19.584 2.25451L27.2128 5.83696L23.9772 7.45715L16.4162 3.79798ZM15.1139 4.42993L15.1166 4.43122L15.1176 4.43072L22.6872 8.09403L15.1245 11.6793L15.1239 11.679L15.1144 11.6835L7.50533 8.09402L15.1139 4.42993ZM13.8066 3.79948L10.6186 2.26209L3.00236 5.88663L6.19583 7.46463L13.8066 3.79948ZM6.18858 8.72807L2.99629 10.2509L10.6323 13.8403L13.7972 12.3174L6.18858 8.72807ZM16.3967 12.3325L19.5757 13.9647L27.1958 10.2286L24.0024 8.72685L16.3967 12.3325Z" fill="white"/>
</svg>
