<svg width="39" height="45" viewBox="0 0 39 45" fill="none" xmlns="http://www.w3.org/2000/svg">
<path d="M30.571 17.4005L0.698242 34.6954L0.698244 0.105469L30.571 17.4005Z" fill="white"/>
<path d="M24.1144 36.6381C25.3007 36.6381 25.8831 37.296 25.8831 38.5039V39.4853C25.8831 40.6932 25.3007 41.3511 24.1144 41.3511H23.5536V44.1875H22.3673V36.6381H24.1144ZM24.1144 37.7166H23.5536V40.2726H24.1144C24.4919 40.2726 24.6968 40.1001 24.6968 39.5608V38.4284C24.6968 37.8892 24.4919 37.7166 24.1144 37.7166ZM26.4853 44.1875V36.6381H27.6716V43.109H29.6237V44.1875H26.4853ZM32.7714 36.6381L33.9793 44.1875H32.7822L32.5773 42.8178H31.1213L30.9164 44.1875H29.8272L31.0351 36.6381H32.7714ZM31.8439 37.9754L31.2723 41.7933H32.4155L31.8439 37.9754ZM35.6426 44.1875V41.6854L34.1435 36.6381H35.3838L36.2897 40.0785L37.1956 36.6381H38.328L36.8289 41.6854V44.1875H35.6426Z" fill="white"/>
</svg>
