<svg width="26" height="25" viewBox="0 0 26 25" fill="none" xmlns="http://www.w3.org/2000/svg">
<path id="Union" fill-rule="evenodd" clip-rule="evenodd" d="M24.2526 0.265625C24.6668 0.265625 25.0026 0.601411 25.0026 1.01563L25.0026 23.6962C25.0026 24.1104 24.6668 24.4462 24.2526 24.4462C24.2403 24.4462 24.228 24.4459 24.2158 24.4453L1.63477 24.4453C1.22055 24.4453 0.884766 24.1095 0.884766 23.6953C0.884766 23.2811 1.22055 22.9453 1.63477 22.9453L22.4455 22.9453L1.33208 1.77325C1.03959 1.47995 1.03959 1.00442 1.33208 0.711122C1.62457 0.417823 2.09878 0.417823 2.39127 0.711122L23.5026 21.8811L23.5026 1.01563C23.5026 0.601411 23.8384 0.265625 24.2526 0.265625Z" fill="#FFED00"/>
</svg>
